<?xml version="1.0" encoding="UTF-8"?>
<svg width="293px" height="47px" viewBox="0 0 293 47" version="1.1" xmlns="http://www.w3.org/2000/svg" xmlns:xlink="http://www.w3.org/1999/xlink">
    <!-- Generator: Sketch 51.2 (57519) - http://www.bohemiancoding.com/sketch -->
    <title>logo bueno</title>
    <desc>Created with Sketch.</desc>
    <defs>
        <polygon id="path-1" points="0 38.0999021 216.955747 38.0999021 216.955747 0.000106650418 0 0.000106650418"></polygon>
        <polygon id="path-3" points="0 0.464716353 52.5207247 0.464716353 52.5207247 12.128268 0 12.128268"></polygon>
    </defs>
    <g id="logo-bueno" stroke="none" stroke-width="1" fill="none" fill-rule="evenodd">
        <g id="Group-45" transform="translate(74.750000, 4.000000)">
            <path d="M1.03344255,18.4351647 C2.40016767,19.1347915 4.50011441,19.8349515 6.66725091,19.8349515 C9.00076206,19.8349515 10.2341742,18.8681654 10.2341742,17.4017222 C10.2341742,16.0014022 9.16766997,15.201524 6.46728137,14.234738 C2.73345022,12.9346694 0.300220928,10.8677843 0.300220928,7.60054872 C0.300220928,3.76699943 3.50026673,0.833046418 8.80079253,0.833046418 C11.3342732,0.833046418 13.2011888,1.36683176 14.5348523,1.96674037 L13.4011583,6.06744896 C12.5010288,5.633915 10.9007393,5.00041152 8.70054114,5.00041152 C6.500343,5.00041152 5.43383882,6.00079244 5.43383882,7.16701477 C5.43383882,8.60092965 6.70084579,9.23389988 9.60067067,10.3345322 C13.5680662,11.8009755 15.4349818,13.8678606 15.4349818,17.0348447 C15.4349818,20.8017375 12.5346237,24.0017833 6.36702998,24.0017833 C3.80048766,24.0017833 1.26647372,23.3352182 0,22.6355915 L1.03344255,18.4351647 Z" id="Fill-1" fill="#797979"></path>
            <path d="M28.8023853,13.6676777 C28.8023853,12.4342656 28.2691332,10.3679138 25.935622,10.3679138 C23.8020804,10.3679138 22.9355458,12.3009526 22.8022327,13.6676777 L28.8023853,13.6676777 Z M22.8352944,17.1348828 C23.0022023,19.2348296 25.0690874,20.2346772 27.4356602,20.2346772 C29.1692627,20.2346772 30.5690495,20.0016461 31.9357746,19.5681121 L32.6028729,23.0022556 C30.9359269,23.6688207 28.9021034,24.0021033 26.7024385,24.0021033 C21.1683483,24.0021033 18.0013642,20.8020575 18.0013642,15.700968 C18.0013642,11.567731 20.5684397,7.00042682 26.235843,7.00042682 C31.5027739,7.00042682 33.5030025,11.1011354 33.5030025,15.1346542 C33.5030025,16.0011889 33.4027511,16.7680054 33.3360946,17.1348828 L22.8352944,17.1348828 Z" id="Fill-3" fill="#797979"></path>
            <path d="M36.5368869,12.7344866 C36.5368869,10.3343189 36.4702304,8.76762425 36.4035739,7.36730426 L40.7703753,7.36730426 L40.9372832,10.3679138 L41.0705962,10.3679138 C41.9040692,8.00080774 43.9042978,7.00042682 45.4709925,7.00042682 C45.9375881,7.00042682 46.1711525,7.00042682 46.5374967,7.06708333 L46.5374967,11.834357 C46.1711525,11.7677005 45.7376185,11.701044 45.1707716,11.701044 C43.303856,11.701044 42.0373823,12.7014249 41.7040997,14.2681196 C41.6374432,14.6014021 41.6038483,15.0013412 41.6038483,15.4012803 L41.6038483,23.6688207 L36.5368869,23.6688207 L36.5368869,12.7344866 Z" id="Fill-5" fill="#797979"></path>
            <path d="M49.2045037,12.7344866 C49.2045037,10.3343189 49.1378472,8.76762425 49.0711907,7.36730426 L53.437992,7.36730426 L53.6048999,10.3679138 L53.738213,10.3679138 C54.571686,8.00080774 56.5719146,7.00042682 58.1386092,7.00042682 C58.6052048,7.00042682 58.8387692,7.00042682 59.2051134,7.06708333 L59.2051134,11.834357 C58.8387692,11.7677005 58.4052353,11.701044 57.8383883,11.701044 C55.9714727,11.701044 54.704999,12.7014249 54.3717165,14.2681196 C54.3050599,14.6014021 54.2714651,15.0013412 54.2714651,15.4012803 L54.2714651,23.6688207 L49.2045037,23.6688207 L49.2045037,12.7344866 Z" id="Fill-7" fill="#797979"></path>
            <path d="M70.1734157,15.9678606 C67.506622,15.934799 65.4397369,16.5683025 65.4397369,18.5349362 C65.4397369,19.8350048 66.3062716,20.467975 67.4399655,20.467975 C68.7069725,20.467975 69.740415,19.6350353 70.0736976,18.6015927 C70.1403541,18.3349667 70.1734157,18.0347457 70.1734157,17.7345248 L70.1734157,15.9678606 Z M70.7733243,23.6685541 L70.4731034,22.0352029 L70.3733853,22.0352029 C69.3068811,23.3352715 67.639935,24.0354315 65.706363,24.0354315 C62.4060658,24.0354315 60.439432,21.6352639 60.439432,19.0351267 C60.439432,14.801105 64.2393864,12.7678148 70.0070411,12.8014097 L70.0070411,12.5678453 C70.0070411,11.7007774 69.5399122,10.4678985 67.0400264,10.4678985 C65.3730804,10.4678985 63.6064162,11.0342123 62.5393788,11.7007774 L61.6061876,8.43407507 C62.7393483,7.80110483 64.9731413,7.00069344 67.940156,7.00069344 C73.3734615,7.00069344 75.1070641,10.2012725 75.1070641,14.0342885 L75.1070641,19.7016918 C75.1070641,21.2683864 75.1737206,22.7689578 75.3406285,23.6685541 L70.7733243,23.6685541 Z" id="Fill-9" fill="#797979"></path>
            <path d="M79.1080012,12.5678453 C79.1080012,10.5345551 79.0413447,8.80095251 78.9746882,7.36703763 L83.3750845,7.36703763 L83.6081156,9.60083064 L83.708367,9.60083064 C84.3749321,8.56738809 86.0418782,7.00069344 88.7422668,7.00069344 C92.0756256,7.00069344 94.5760446,9.20089158 94.5760446,14.0012269 L94.5760446,23.6685541 L89.5090833,23.6685541 L89.5090833,14.6347304 C89.5090833,12.5347837 88.7753284,11.1008688 86.9420077,11.1008688 C85.5416877,11.1008688 84.7082147,12.0681881 84.3749321,13.000846 C84.2416191,13.3010669 84.1749626,13.8012574 84.1749626,14.267853 L84.1749626,23.6685541 L79.1080012,23.6685541 L79.1080012,12.5678453 Z" id="Fill-11" fill="#797979"></path>
            <path d="M102.943943,15.501265 C102.943943,18.3013718 104.110699,20.4013185 106.277835,20.4013185 C108.243936,20.4013185 109.510943,18.4352181 109.510943,15.501265 C109.510943,13.0680357 108.577751,10.6012116 106.277835,10.6012116 C103.843539,10.6012116 102.943943,13.1010974 102.943943,15.501265 M114.744812,15.3348904 C114.744812,21.3019813 110.511324,24.0354315 106.143989,24.0354315 C101.377248,24.0354315 97.7106071,20.9020422 97.7106071,15.6345781 C97.7106071,10.3676472 101.177279,7.00069344 106.411148,7.00069344 C111.411453,7.00069344 114.744812,10.4343037 114.744812,15.3348904" id="Fill-13" fill="#797979"></path>
            <polygon id="Fill-15" fill="#797979" points="129.879413 1.19981721 129.879413 9.83423509 138.246671 9.83423509 138.246671 1.19981721 143.314166 1.19981721 143.314166 23.6689274 138.246671 23.6689274 138.246671 14.2682262 129.879413 14.2682262 129.879413 23.6689274 124.77939 23.6689274 124.77939 1.19981721"></polygon>
            <path d="M151.782369,15.501265 C151.782369,18.3013718 152.949125,20.4013185 155.116261,20.4013185 C157.082362,20.4013185 158.349369,18.4352181 158.349369,15.501265 C158.349369,13.0680357 157.416178,10.6012116 155.116261,10.6012116 C152.681966,10.6012116 151.782369,13.1010974 151.782369,15.501265 M163.583238,15.3348904 C163.583238,21.3019813 159.34975,24.0354315 154.982415,24.0354315 C150.215675,24.0354315 146.549033,20.9020422 146.549033,15.6345781 C146.549033,10.3676472 150.015705,7.00069344 155.249574,7.00069344 C160.249879,7.00069344 163.583238,10.4343037 163.583238,15.3348904" id="Fill-17" fill="#797979"></path>
            <path d="M172.384937,2.70006864 L172.384937,7.36709096 L176.017984,7.36709096 L176.017984,11.1009221 L172.384937,11.1009221 L172.384937,17.0013565 C172.384937,18.9685235 172.851533,19.8681198 174.385166,19.8681198 C175.018136,19.8681198 175.518326,19.8014632 175.884671,19.7348067 L175.918265,23.5688893 C175.2517,23.8355153 174.05135,24.00189 172.617968,24.00189 C170.984617,24.00189 169.617892,23.4355763 168.818014,22.6021032 C167.884823,21.6353172 167.417694,20.0680893 167.417694,17.768173 L167.417694,11.1009221 L165.250557,11.1009221 L165.250557,7.36709096 L167.417694,7.36709096 L167.417694,3.83376259 L172.384937,2.70006864 Z" id="Fill-19" fill="#797979"></path>
            <path d="M188.653285,13.6676777 C188.653285,12.4342656 188.1195,10.3679138 185.785989,10.3679138 C183.652447,10.3679138 182.785913,12.3009526 182.652599,13.6676777 L188.653285,13.6676777 Z M182.686194,17.1348828 C182.852569,19.2348296 184.919454,20.2346772 187.28656,20.2346772 C189.019629,20.2346772 190.419949,20.0016461 191.786675,19.5681121 L192.45324,23.0022556 C190.786827,23.6688207 188.753003,24.0021033 186.553339,24.0021033 C181.019248,24.0021033 177.852264,20.8020575 177.852264,15.700968 C177.852264,11.567731 180.41934,7.00042682 186.08621,7.00042682 C191.353141,7.00042682 193.353369,11.1011354 193.353369,15.1346542 C193.353369,16.0011889 193.253651,16.7680054 193.186995,17.1348828 L182.686194,17.1348828 Z" id="Fill-21" fill="#797979"></path>
            <mask id="mask-2" fill="white">
                <use xlink:href="#path-1"></use>
            </mask>
            <g id="Clip-24"></g>
            <polygon id="Fill-23" fill="#797979" mask="url(#mask-2)" points="196.38768 23.669034 201.454642 23.669034 201.454642 0.000106650418 196.38768 0.000106650418"></polygon>
            <path d="M205.521542,19.2350429 C206.454733,19.8013566 208.388305,20.468455 209.888343,20.468455 C211.421976,20.468455 212.05548,19.9346696 212.05548,19.1017298 C212.05548,18.2682568 211.555289,17.8683178 209.655312,17.2348143 C206.287825,16.1011203 204.98829,14.2683329 205.021885,12.3347608 C205.021885,9.30055639 207.621489,7.00064012 211.655541,7.00064012 C213.555518,7.00064012 215.255526,7.43364082 216.255907,7.93436453 L215.355777,11.434098 C214.622022,11.0341589 213.222236,10.5009069 211.821916,10.5009069 C210.588503,10.5009069 209.888343,11.0010973 209.888343,11.8340371 C209.888343,12.6013868 210.521847,13.0013259 212.522076,13.7009527 C215.622403,14.7679901 216.922472,16.335218 216.955533,18.7353857 C216.955533,21.7685236 214.555366,24.0017833 209.888343,24.0017833 C207.754802,24.0017833 205.854825,23.5351877 204.621946,22.8686226 L205.521542,19.2350429 Z" id="Fill-25" fill="#797979" mask="url(#mask-2)"></path>
            <path d="M5.98239525,37.7801642 C5.68324082,37.9348073 5.02307473,38.0894504 4.18693545,38.0894504 C1.97927179,38.0894504 0.638142779,36.7067277 0.638142779,34.5918499 C0.638142779,32.3015322 2.22723401,30.9188095 4.3522436,30.9188095 C5.18784963,30.9188095 5.78615848,31.0942494 6.04425249,31.228629 L5.7658949,32.2396749 C5.43581185,32.0951636 4.98201432,31.9714491 4.40396905,31.9714491 C2.99031776,31.9714491 1.96914,32.8587806 1.96914,34.5299927 C1.96914,36.0572267 2.86660327,37.0368108 4.39383726,37.0368108 C4.90949204,37.0368108 5.44594364,36.9338931 5.77602669,36.77925 L5.98239525,37.7801642 Z" id="Fill-26" fill="#7A7A7A" mask="url(#mask-2)"></path>
            <path d="M12.5832563,35.0560992 L12.0366729,33.3438267 C11.9022933,32.9204246 11.7887107,32.4458302 11.685793,32.0437581 L11.6649962,32.0437581 C11.5620785,32.4458302 11.4586276,32.9310896 11.3349131,33.3438267 L10.7984615,35.0560992 L12.5832563,35.0560992 Z M10.592093,36.015953 L9.99378411,37.9863194 L8.68358372,37.9863194 L10.9120442,31.0327122 L12.5315308,31.0327122 L14.7914532,37.9863194 L13.4295273,37.9863194 L12.7997566,36.015953 L10.592093,36.015953 Z" id="Fill-27" fill="#7A7A7A" mask="url(#mask-2)"></path>
            <polygon id="Fill-28" fill="#7A7A7A" mask="url(#mask-2)" points="17.8222981 31.0324989 19.0914381 31.0324989 19.0914381 36.923868 21.949136 36.923868 21.949136 37.9866394 17.8222981 37.9866394"></polygon>
            <path d="M28.3956739,35.0560992 L27.8490905,33.3438267 C27.714711,32.9204246 27.6011283,32.4458302 27.4982106,32.0437581 L27.4774138,32.0437581 C27.3739629,32.4458302 27.2710452,32.9310896 27.1473308,33.3438267 L26.6108792,35.0560992 L28.3956739,35.0560992 Z M26.4045106,36.015953 L25.8062018,37.9863194 L24.4960014,37.9863194 L26.7244619,31.0327122 L28.3439485,31.0327122 L30.6038708,37.9863194 L29.241945,37.9863194 L28.6127075,36.015953 L26.4045106,36.015953 Z" id="Fill-29" fill="#7A7A7A" mask="url(#mask-2)"></path>
            <path d="M39.0916977,34.199963 L39.8446497,34.199963 C40.7010525,34.199963 41.2375041,33.7456322 41.2375041,33.0545375 C41.2375041,32.2909205 40.7010525,31.9405738 39.8755783,31.9405738 C39.4735062,31.9405738 39.2154122,31.9715025 39.0916977,32.0024311 L39.0916977,34.199963 Z M37.8326895,31.1252314 C38.3072839,31.0425773 39.0191754,30.9807201 39.7518638,30.9807201 C40.752778,30.9807201 41.4337409,31.1460282 41.8982035,31.5379685 C42.280012,31.8579198 42.4965123,32.3426459 42.4965123,32.930823 C42.4965123,33.8282863 41.8875384,34.4372601 41.2375041,34.6745573 L41.2375041,34.7054859 C41.7328953,34.8910577 42.0320497,35.3763171 42.2074897,36.046615 C42.42399,36.9131496 42.610095,37.7183603 42.7540731,37.9865861 L41.4438727,37.9865861 C41.340955,37.7802175 41.1756469,37.212304 40.9799434,36.3457694 C40.7837066,35.4381743 40.4536235,35.1491517 39.731067,35.1283549 L39.0916977,35.1283549 L39.0916977,37.9865861 L37.8326895,37.9865861 L37.8326895,31.1252314 Z" id="Fill-30" fill="#7A7A7A" mask="url(#mask-2)"></path>
            <path d="M49.2208745,35.0560992 L48.6742911,33.3438267 C48.5399116,32.9204246 48.4263289,32.4458302 48.3234112,32.0437581 L48.3026144,32.0437581 C48.1996968,32.4458302 48.0962459,32.9310896 47.9725314,33.3438267 L47.4360798,35.0560992 L49.2208745,35.0560992 Z M47.2297112,36.015953 L46.6314024,37.9863194 L45.321202,37.9863194 L47.5496625,31.0327122 L49.1691491,31.0327122 L51.4290714,37.9863194 L50.0671456,37.9863194 L49.4373749,36.015953 L47.2297112,36.015953 Z" id="Fill-31" fill="#7A7A7A" mask="url(#mask-2)"></path>
            <polygon id="Fill-32" fill="#7A7A7A" mask="url(#mask-2)" points="54.9554142 32.0951103 52.9743827 32.0951103 52.9743827 31.0323389 58.2258493 31.0323389 58.2258493 32.0951103 56.2245542 32.0951103 56.2245542 37.9864794 54.9554142 37.9864794"></polygon>
            <path d="M61.9798907,31.0324989 L63.2490307,31.0324989 L63.2490307,35.5411453 C63.2490307,37.4603196 62.3206388,38.0996888 60.9379161,38.0996888 C60.5870362,38.0996888 60.1433705,38.0378316 59.8751447,37.9349139 L60.0297878,36.9132029 C60.2361563,36.9755934 60.5145139,37.0369174 60.8136684,37.0369174 C61.5362249,37.0369174 61.9798907,36.7068344 61.9798907,35.4995516 L61.9798907,31.0324989 Z" id="Fill-33" fill="#7A7A7A" mask="url(#mask-2)"></path>
            <path d="M70.0877754,35.0560992 L69.541192,33.3438267 C69.4068125,32.9204246 69.2932298,32.4458302 69.1903122,32.0437581 L69.1695153,32.0437581 C69.0660644,32.4458302 68.9631468,32.9310896 68.8394323,33.3438267 L68.3029807,35.0560992 L70.0877754,35.0560992 Z M68.0966121,36.015953 L67.4983033,37.9863194 L66.1881029,37.9863194 L68.4165634,31.0327122 L70.03605,31.0327122 L72.2959724,37.9863194 L70.9340465,37.9863194 L70.304809,36.015953 L68.0966121,36.015953 Z" id="Fill-34" fill="#7A7A7A" mask="url(#mask-2)"></path>
            <path d="M76.5956373,37.0164939 C76.7710772,37.0474225 77.039303,37.0474225 77.2973971,37.0474225 C78.9483455,37.0580875 79.9284629,36.1499592 79.9284629,34.385428 C79.9385947,32.8485955 79.0512632,31.9713958 77.462172,31.9713958 C77.0600999,31.9713958 76.7710772,32.0023244 76.5956373,32.0433848 L76.5956373,37.0164939 Z M75.3264973,31.1251247 C75.8837458,31.0323389 76.5956373,30.9811467 77.3491225,30.9811467 C78.6491911,30.9811467 79.5466544,31.2493725 80.1860236,31.7852908 C80.8568548,32.3324075 81.2695919,33.1578817 81.2695919,34.3443676 C81.2695919,35.582579 80.846723,36.5109709 80.1860236,37.1092797 C79.4949289,37.7385172 78.3910971,38.0584684 77.039303,38.0584684 C76.2964829,38.0584684 75.7392344,38.017408 75.3264973,37.9656826 L75.3264973,31.1251247 Z" id="Fill-35" fill="#7A7A7A" mask="url(#mask-2)"></path>
            <path d="M87.6639777,35.0560992 L87.1173943,33.3438267 C86.9830148,32.9204246 86.8694321,32.4458302 86.7665144,32.0437581 L86.7457176,32.0437581 C86.6427999,32.4458302 86.539349,32.9310896 86.4156346,33.3438267 L85.879183,35.0560992 L87.6639777,35.0560992 Z M85.6728144,36.015953 L85.0745055,37.9863194 L83.7643052,37.9863194 L85.9927656,31.0327122 L87.6122523,31.0327122 L89.8721746,37.9863194 L88.5102488,37.9863194 L87.8804781,36.015953 L85.6728144,36.015953 Z" id="Fill-36" fill="#7A7A7A" mask="url(#mask-2)"></path>
            <path d="M102.971566,35.149045 C102.930505,34.2515818 102.87878,33.1680135 102.888912,32.2289566 L102.857983,32.2289566 C102.630818,33.0752276 102.341795,34.0142846 102.032509,34.890951 L101.021463,37.9038253 L100.041345,37.9038253 L99.1129534,34.9325447 C98.8447276,34.0452132 98.5967654,33.0960245 98.4111937,32.2289566 L98.3903969,32.2289566 C98.3600015,33.1370849 98.3184078,34.2409167 98.2666824,35.1906387 L98.1120393,37.9864794 L96.9255534,37.9864794 L97.3900159,31.0323389 L99.061228,31.0323389 L99.9693563,33.8281796 C100.216785,34.6435221 100.433286,35.4689963 100.608726,36.2427451 L100.639654,36.2427451 C100.825759,35.4897931 101.063056,34.6333903 101.331282,33.8180478 L102.290603,31.0323389 L103.941018,31.0323389 L104.343623,37.9864794 L103.105945,37.9864794 L102.971566,35.149045 Z" id="Fill-37" fill="#7A7A7A" mask="url(#mask-2)"></path>
            <path d="M111.016687,35.0560992 L110.470103,33.3438267 C110.336257,32.9204246 110.222674,32.4458302 110.11869,32.0437581 L110.098426,32.0437581 C109.995509,32.4458302 109.892591,32.9310896 109.768343,33.3438267 L109.231892,35.0560992 L111.016687,35.0560992 Z M109.025523,36.015953 L108.427214,37.9863194 L107.117014,37.9863194 L109.345475,31.0327122 L110.964961,31.0327122 L113.224883,37.9863194 L111.862958,37.9863194 L111.233187,36.015953 L109.025523,36.015953 Z" id="Fill-38" fill="#7A7A7A" mask="url(#mask-2)"></path>
            <polygon id="Fill-39" fill="#7A7A7A" mask="url(#mask-2)" points="116.255462 31.0324989 117.524602 31.0324989 117.524602 36.923868 120.3823 36.923868 120.3823 37.9866394 116.255462 37.9866394"></polygon>
            <polygon id="Fill-40" fill="#7A7A7A" mask="url(#mask-2)" points="123.403866 31.0324989 124.673006 31.0324989 124.673006 36.923868 127.530704 36.923868 127.530704 37.9866394 123.403866 37.9866394"></polygon>
            <path d="M131.129782,34.5402844 C131.129782,35.9539357 131.841674,37.0785644 133.059088,37.0785644 C134.287168,37.0785644 134.978263,35.9432707 134.978263,34.488559 C134.978263,33.1783586 134.328228,31.9406805 133.059088,31.9406805 C131.800613,31.9406805 131.129782,33.1063696 131.129782,34.5402844 M136.319392,34.4373668 C136.319392,36.7687449 134.90574,38.0997422 132.986566,38.0997422 C131.026865,38.0997422 129.78812,36.60397 129.78812,34.5610813 C129.78812,32.4254066 131.129782,30.9189695 133.090017,30.9189695 C135.122241,30.9189695 136.319392,32.4563353 136.319392,34.4373668" id="Fill-41" fill="#7A7A7A" mask="url(#mask-2)"></path>
            <path d="M140.733013,34.199963 L141.485965,34.199963 C142.342901,34.199963 142.878819,33.7456322 142.878819,33.0545375 C142.878819,32.2909205 142.342901,31.9405738 141.517426,31.9405738 C141.114821,31.9405738 140.856727,31.9715025 140.733013,32.0024311 L140.733013,34.199963 Z M139.474538,31.1252314 C139.948599,31.0425773 140.66049,30.9807201 141.393179,30.9807201 C142.394093,30.9807201 143.075056,31.1460282 143.539518,31.5379685 C143.921327,31.8579198 144.137827,32.3426459 144.137827,32.930823 C144.137827,33.8282863 143.528853,34.4372601 142.878819,34.6745573 L142.878819,34.7054859 C143.37421,34.8910577 143.673365,35.3763171 143.848805,36.046615 C144.065305,36.9131496 144.25141,37.7183603 144.395388,37.9865861 L143.085188,37.9865861 C142.98227,37.7802175 142.816962,37.212304 142.621258,36.3457694 C142.425022,35.4381743 142.094938,35.1491517 141.372382,35.1283549 L140.733013,35.1283549 L140.733013,37.9865861 L139.474538,37.9865861 L139.474538,31.1252314 Z" id="Fill-42" fill="#7A7A7A" mask="url(#mask-2)"></path>
            <path d="M152.38953,37.7801642 C152.090376,37.9348073 151.43021,38.0894504 150.594604,38.0894504 C148.386407,38.0894504 147.045278,36.7067277 147.045278,34.5918499 C147.045278,32.3015322 148.633836,30.9188095 150.759378,30.9188095 C151.595518,30.9188095 152.193827,31.0942494 152.451387,31.228629 L152.17303,32.2396749 C151.842947,32.0951636 151.388616,31.9714491 150.811104,31.9714491 C149.397453,31.9714491 148.376275,32.8587806 148.376275,34.5299927 C148.376275,36.0572267 149.273738,37.0368108 150.800972,37.0368108 C151.316627,37.0368108 151.853078,36.9338931 152.183162,36.77925 L152.38953,37.7801642 Z" id="Fill-43" fill="#7A7A7A" mask="url(#mask-2)"></path>
            <path d="M158.990124,35.0560992 L158.443541,33.3438267 C158.309695,32.9204246 158.196112,32.4458302 158.092661,32.0437581 L158.071864,32.0437581 C157.968947,32.4458302 157.866029,32.9310896 157.741781,33.3438267 L157.20533,35.0560992 L158.990124,35.0560992 Z M156.998961,36.015953 L156.400652,37.9863194 L155.090452,37.9863194 L157.318912,31.0327122 L158.938399,31.0327122 L161.198321,37.9863194 L159.836396,37.9863194 L159.206625,36.015953 L156.998961,36.015953 Z" id="Fill-44" fill="#7A7A7A" mask="url(#mask-2)"></path>
        </g>
        <g id="isologo" transform="translate(3.584166, 1.229242)">
            <path d="M39.4053367,31.1108253 L57.0732561,30.384143 C57.1936881,30.0093911 57.2862369,29.628033 57.34319,29.242471 L39.5477194,28.5596298 C39.8716402,28.9367839 40.0614838,29.3313544 40.0614838,29.7433413 C40.0614838,30.2159851 39.8562154,30.6814221 39.4053367,31.1108253" id="Fill-1" fill="#EE204A"></path>
            <path d="M47.2932816,18.9925266 C43.7574434,17.9319307 38.4875019,17.7499599 30.314732,16.7139871 C27.0126388,16.3080059 24.9213922,15.8707954 24.0409922,15.4005539 C23.477987,15.1200905 23.0911806,14.8174063 22.8770132,14.4937023 L5.32122019,15.2570191 C5.4149555,15.8563819 5.59768003,16.44013 5.86108811,17.0058612 L38.9543986,18.3505238 L7.95114822,19.6999909 C8.66840132,20.3245773 9.52210456,20.9011187 10.5247164,21.4121986 C14.0190264,23.2096864 19.4248248,24.1147362 27.6254779,25.1999552 C31.5730396,25.7110351 34.7410558,26.2377296 36.5819461,26.7956535 L57.0269223,25.9554646 C56.8803868,25.5482822 56.6976622,25.1489072 56.4668835,24.7615435 L15.8047434,23.201879 L53.384297,21.6572287 C51.8418172,20.640474 49.8170159,19.7498377 47.2932816,18.9925266" id="Fill-3" fill="#EE204A"></path>
            <g id="Group-7" stroke-width="1" transform="translate(2.623720, 28.281328)">
                <mask id="mask-4" fill="white">
                    <use xlink:href="#path-3"></use>
                </mask>
                <g id="Clip-6"></g>
                <path d="M13.1809644,8.30147481 L50.9812113,6.74781598 C51.1864797,6.58386203 51.3917482,6.42110921 51.5833716,6.24934793 C51.9262768,5.94125865 52.2318064,5.62596259 52.5207247,5.30886485 L30.0527269,4.44645508 C29.4671778,4.45306128 28.8519657,4.45306128 28.208277,4.45306128 C26.6907142,4.45306128 25.3202803,4.38639868 24.0797706,4.21764023 L13.1809644,3.79904718 L21.1033778,3.47354154 C20.6370743,3.2861656 20.1933148,3.07476711 19.7904902,2.8153235 C18.9035644,2.24598891 18.1649539,1.46165244 17.8701029,0.464716353 L-0.000118652291,0.464716353 C0.523137951,4.06089305 2.67133768,6.29739305 6.63373094,8.62998327 C10.5967175,10.9631741 17.7229741,12.128268 28.0148738,12.128268 C33.8757037,12.128268 38.7315487,11.6304006 42.5847819,10.6346656 C43.7891026,10.3229729 44.9002813,9.96143346 45.9378956,9.55785451 L13.1809644,8.30147481 Z" id="Fill-5" fill="#EE204A" mask="url(#mask-4)"></path>
            </g>
            <path d="M38.9543393,4.96431457 L12.3928374,6.12040009 C11.0686778,6.72456739 9.96758458,7.42242265 9.01717973,8.16231739 L38.9543393,9.3784593 L6.40208323,10.7957901 C6.0301083,11.3326943 5.74949563,11.879808 5.55787218,12.4365307 L22.8644954,13.1397911 C23.1077326,12.6713512 23.5918339,12.2533587 24.3292579,11.8906181 C25.4303512,11.3471078 27.6230455,10.8023963 29.7973487,10.8023963 C32.4397353,10.8023963 34.819307,10.8738634 36.4436568,11.5152657 C37.9980018,12.1272403 38.7081358,12.4034997 39.1756258,14.0076059 L56.972283,14.0076059 C56.2010431,10.3141379 53.7858757,7.62060874 49.7279673,5.92761908 C45.6694657,4.23643111 38.2459851,3.57521024 30.5146018,3.57521024 C26.3327018,3.57521024 22.7719466,3.77820085 19.789028,4.18538318 L38.9543393,4.96431457 Z" id="Fill-8" fill="#EE204A"></path>
        </g>
    </g>
</svg>